<?xml version="1.0" standalone="no"?>
<!DOCTYPE svg PUBLIC "-//W3C//DTD SVG 20010904//EN"
 "http://www.w3.org/TR/2001/REC-SVG-20010904/DTD/svg10.dtd">
<svg version="1.0" xmlns="http://www.w3.org/2000/svg"
 width="259.000000pt" height="194.000000pt" viewBox="0 0 259.000000 194.000000"
 preserveAspectRatio="xMidYMid meet">

<g transform="translate(0.000000,194.000000) scale(0.100000,-0.100000)"
fill="#000000" stroke="none">
<path d="M1290 1785 c-6 -8 -10 -22 -8 -32 3 -15 17 -19 78 -24 41 -3 98 -15
126 -26 78 -30 216 -117 260 -163 51 -54 71 -65 90 -49 23 19 16 56 -17 94
-41 47 -144 127 -196 154 -98 49 -306 79 -333 46z"/>
<path d="M1301 1688 c-27 -9 -27 -6 9 -271 33 -240 40 -267 67 -267 10 0 90
56 177 125 207 162 208 163 204 200 -2 25 -16 39 -78 82 -121 83 -205 122
-287 131 -39 4 -81 5 -92 0z"/>
<path d="M1026 1594 c-199 -55 -350 -171 -451 -349 -19 -34 -41 -79 -49 -101
l-14 -40 65 25 c56 22 70 33 99 77 100 151 355 322 496 332 66 5 73 18 33 57
-30 31 -62 31 -179 -1z"/>
<path d="M1125 1486 c-216 -82 -367 -184 -423 -285 l-23 -41 50 0 c66 0 188
-19 528 -81 214 -39 301 -50 377 -50 54 0 103 4 108 9 14 14 -18 111 -58 175
-20 31 -38 57 -41 57 -3 0 -42 -26 -86 -59 -180 -129 -227 -147 -248 -95 -5
15 -23 110 -39 213 -17 102 -31 189 -33 192 -1 4 -52 -12 -112 -35z"/>
<path d="M2147 1364 c-16 -8 -69 -20 -118 -25 -182 -18 -279 -60 -279 -119 0
-32 24 -34 119 -11 148 37 173 19 179 -130 5 -114 6 -115 89 -74 35 18 77 55
133 116 45 50 79 93 76 96 -2 3 -28 0 -56 -6 -60 -13 -140 -14 -158 -2 -10 6
-10 10 2 20 16 13 56 111 56 136 0 19 -7 18 -43 -1z"/>
<path d="M1702 1319 c-23 -17 -42 -33 -42 -36 0 -3 13 -21 30 -39 l30 -34 14
34 c8 19 27 42 43 52 15 10 30 20 33 22 8 6 -32 32 -50 32 -9 0 -35 -14 -58
-31z"/>
<path d="M1835 1181 c-54 -13 -70 -20 -69 -34 0 -9 1 -37 2 -62 2 -42 4 -45
30 -45 66 0 212 93 212 135 0 29 -67 32 -175 6z"/>
<path d="M650 1129 c-61 -12 -185 -76 -215 -110 -22 -27 -23 -31 -10 -81 7
-29 25 -106 40 -170 15 -65 30 -118 33 -118 3 0 26 10 51 23 38 18 67 23 161
25 107 4 188 -4 500 -48 235 -32 306 -39 410 -40 176 0 273 33 363 124 l51 51
-3 170 c-1 93 -4 172 -6 173 -2 2 -19 -7 -37 -21 -84 -63 -170 -91 -308 -102
-87 -7 -191 8 -575 80 -283 53 -366 61 -455 44z m155 -84 c40 -23 75 -74 75
-108 0 -9 -11 -29 -24 -44 -22 -25 -31 -28 -93 -30 -37 -1 -69 -2 -71 -2 -1
-1 5 -17 13 -37 28 -67 10 -114 -34 -87 -19 12 -60 169 -60 228 0 93 101 135
194 80z m186 -27 c14 -26 5 -238 -12 -269 -6 -11 -18 -19 -27 -17 -21 4 -26
64 -17 206 6 91 9 102 26 102 10 0 24 -10 30 -22z m254 -19 c47 -22 44 -51
-14 -134 l-51 -73 35 -6 c33 -6 56 -38 40 -54 -8 -8 -182 -5 -196 3 -14 9 5
38 78 122 36 41 62 80 60 87 -3 8 -30 17 -66 21 -57 6 -61 9 -61 32 0 26 0 26
73 21 40 -3 86 -11 102 -19z m213 -40 c50 -13 82 -34 82 -55 0 -7 -22 -45 -50
-86 l-50 -73 33 -11 c24 -8 33 -17 35 -37 3 -27 3 -27 -60 -26 -35 0 -83 4
-107 7 l-44 7 38 50 c21 28 57 71 81 97 36 39 54 68 42 68 -2 0 -30 4 -62 10
-57 9 -76 21 -76 48 0 16 74 16 138 1z m320 -23 c35 -18 66 -75 82 -148 11
-46 11 -60 0 -73 -19 -23 -57 -19 -71 8 -6 12 -13 24 -15 26 -2 2 -24 -15 -49
-38 -34 -32 -52 -41 -79 -41 -88 0 -114 127 -44 215 47 60 119 81 176 51z"/>
<path d="M729 984 c-11 -14 -10 -20 14 -40 32 -28 50 -30 67 -9 9 11 7 19 -14
40 -29 29 -48 32 -67 9z"/>
<path d="M1663 858 c-30 -34 -43 -62 -34 -77 20 -31 91 28 91 75 0 31 -29 32
-57 2z"/>
<path d="M300 804 c-59 -27 -120 -70 -120 -83 0 -5 33 -12 73 -16 39 -4 82
-13 95 -19 23 -12 23 -12 -19 -45 -26 -21 -50 -54 -65 -88 -31 -70 -31 -73 8
-62 56 16 125 10 255 -21 175 -42 243 -40 243 6 0 34 -31 50 -159 83 -62 16
-117 33 -123 39 -6 6 -21 54 -34 107 -13 53 -28 103 -35 111 -17 21 -57 17
-119 -12z"/>
<path d="M1955 680 c-4 -6 -32 -23 -63 -39 -48 -25 -61 -38 -86 -85 -53 -104
-178 -193 -321 -231 -82 -22 -288 -30 -414 -16 -121 13 -187 39 -243 95 l-36
37 -48 -16 c-26 -9 -54 -13 -63 -11 -29 10 71 -71 133 -108 121 -72 322 -115
476 -101 124 11 250 35 311 60 79 32 201 118 255 179 62 72 144 246 115 246
-5 0 -13 -5 -16 -10z"/>
<path d="M576 665 c-47 -16 -74 -41 -61 -54 6 -5 55 -21 110 -34 55 -14 110
-29 123 -33 21 -6 22 -4 22 65 l0 71 -77 0 c-43 -1 -96 -7 -117 -15z"/>
<path d="M793 578 l7 -103 50 -47 c28 -26 75 -57 107 -70 54 -21 72 -23 243
-22 209 1 296 15 395 63 94 47 141 86 169 143 14 28 25 52 23 54 -1 1 -45 -2
-97 -7 -94 -8 -300 7 -414 31 -26 6 -80 13 -120 16 -39 3 -125 14 -191 25 -66
10 -133 19 -149 19 l-29 0 6 -102z"/>
</g>
</svg>
